<?xml version="1.0" encoding="utf-8"?>
<!-- Generator: Adobe Illustrator 23.1.1, SVG Export Plug-In . SVG Version: 6.00 Build 0)  -->
<svg version="1.1" id="Camada_1" xmlns="http://www.w3.org/2000/svg" xmlns:xlink="http://www.w3.org/1999/xlink" x="0px" y="0px"
	 viewBox="0 0 1017.9 322.6" style="enable-background:new 0 0 1017.9 322.6;" xml:space="preserve">
<style type="text/css">
	.st0{clip-path:url(#SVGID_2_);}
	.st1{fill:#38509D;}
	.st2{clip-path:url(#SVGID_4_);}
	.st3{clip-path:url(#SVGID_6_);}
	.st4{fill:url(#SVGID_7_);}
	.st5{clip-path:url(#SVGID_9_);}
	.st6{fill:url(#SVGID_10_);}
</style>
<title>KBANK</title>
<g>
	<defs>
		<rect id="SVGID_1_" x="-422.2" y="-369.3" width="1920" height="1080"/>
	</defs>
	<clipPath id="SVGID_2_">
		<use xlink:href="#SVGID_1_"  style="overflow:visible;"/>
	</clipPath>
	<g class="st0">
		<polygon class="st1" points="312.9,120.6 324.3,120.6 324.3,181.1 382.5,120.6 397.2,120.6 353.8,164.9 399.1,221.9 384.8,221.9 
			345.9,172.9 324.3,194.7 324.3,221.9 312.9,221.9 		"/>
		<path class="st1" d="M455.1,119.9h10.7l46.2,102h-12.3l-11.9-26.8h-55.1l-12,26.8H409L455.1,119.9z M483.3,184.7l-23-51.5
			l-23.1,51.5H483.3z"/>
		<g>
			<defs>
				<rect id="SVGID_3_" x="-422.2" y="-369.3" width="1920" height="1080"/>
			</defs>
			<clipPath id="SVGID_4_">
				<use xlink:href="#SVGID_3_"  style="overflow:visible;"/>
			</clipPath>
			<g class="st2">
				<path class="st1" d="M533.4,120.6h37.9c22.9,0,37.9,12.1,37.9,32.1v0.3c0,21.9-18.2,33.1-39.8,33.1h-24.6v35.7h-11.4V120.6z
					 M569.8,175.8c16.8,0,27.8-9,27.8-22.3v-0.3c0-14.5-10.9-22-27.2-22h-25.6v44.6L569.8,175.8z"/>
				<polygon class="st1" points="658.2,131.2 624.2,131.2 624.2,120.6 703.8,120.6 703.8,131.2 669.8,131.2 669.8,221.9 
					658.2,221.9 				"/>
				<path class="st1" d="M725.1,179.5v-58.9h11.4v58.2c0,21.9,11.7,34.2,31,34.2c18.7,0,30.5-11.3,30.5-33.4v-58.9h11.4v58
					c0,29.5-16.9,44.8-42.2,44.8C742.2,223.5,725.1,208.2,725.1,179.5"/>
				<path class="st1" d="M837.9,120.6h43.5c12.5,0,22.4,3.8,28.8,10.1c5.2,5.4,8,12.6,7.8,20v0.2c0,16.8-11.6,26.6-27.5,29.5
					l31.1,41.4h-14l-29.4-39.3h-29v39.4h-11.4V120.6z M880.5,172.3c15.2,0,26-7.8,26-20.8v-0.3c0-12.4-9.5-20-25.9-20h-31.2v41.1
					L880.5,172.3z"/>
				<polygon class="st1" points="944,120.6 1017.2,120.6 1017.2,131.1 955.4,131.1 955.4,165.6 1010.7,165.6 1010.7,176.1 
					955.4,176.1 955.4,211.5 1017.9,211.5 1017.9,221.9 944,221.9 				"/>
			</g>
		</g>
		<g>
			<defs>
				<path id="SVGID_5_" d="M0,221.7L0,221.7 M0,88.7v132.2c0.1-8.2,2.5-74.1,60.3-52.1c74.4,28.3,133.1,93.8,200.5,150.8
					c10,8.5,22.8,0.1,17.7-12.4c-23.6-58.9-62.5-120.3-96.4-171.7S97.6,22.6,67.9,7.5C57.7,2.2,49,0,41.6,0C-4.9,0,0,88.8,0,88.7"/>
			</defs>
			<clipPath id="SVGID_6_">
				<use xlink:href="#SVGID_5_"  style="overflow:visible;"/>
			</clipPath>
			<g class="st3">
				
					<linearGradient id="SVGID_7_" gradientUnits="userSpaceOnUse" x1="-5886.6689" y1="-1231.1497" x2="-5885.6694" y2="-1231.1497" gradientTransform="matrix(-589.793 -644.549 644.549 -589.793 -2678076 -4520026)">
					<stop  offset="0" style="stop-color:#6A4393"/>
					<stop  offset="0.15" style="stop-color:#6A4393"/>
					<stop  offset="0.28" style="stop-color:#931100"/>
					<stop  offset="0.44" style="stop-color:#E8290A"/>
					<stop  offset="1" style="stop-color:#E8290A"/>
				</linearGradient>
				<polygon class="st4" points="-168.2,149.5 152.1,-143.7 447,178.5 126.6,471.7 				"/>
			</g>
		</g>
		<g>
			<defs>
				<path id="SVGID_8_" d="M0,102.1L0,102.1 M260.8,3.4c-67.5,57-126.2,122.4-200.6,150.8C2.5,176.2,0.1,110.3,0,102.1v132.1
					c0,0-6.6,119.3,67.9,81.3c29.7-15.1,80.3-76.7,114.2-128.1s72.8-112.8,96.5-171.7c3.6-9-2-15.8-9.1-15.8
					C266.3,0.1,263.2,1.3,260.8,3.4"/>
			</defs>
			<clipPath id="SVGID_9_">
				<use xlink:href="#SVGID_8_"  style="overflow:visible;"/>
			</clipPath>
			<g class="st5">
				
					<linearGradient id="SVGID_10_" gradientUnits="userSpaceOnUse" x1="-5875.957" y1="-1231.2318" x2="-5874.957" y2="-1231.2318" gradientTransform="matrix(444.6646 -436.2085 436.2085 444.6646 3149740.25 -2015185.125)">
					<stop  offset="0" style="stop-color:#34519E"/>
					<stop  offset="0.16" style="stop-color:#34519E"/>
					<stop  offset="0.55" style="stop-color:#6A4393"/>
					<stop  offset="1" style="stop-color:#E8290A"/>
				</linearGradient>
				<polygon class="st6" points="-183.3,173.4 140.6,-144.3 458.9,180.2 135,497.9 				"/>
			</g>
		</g>
	</g>
</g>
<g>
	<defs>
		<rect id="SVGID_11_" x="-1079.1" y="-9.5" width="1920" height="1080"/>
	</defs>
	<clipPath id="SVGID_12_">
		<use xlink:href="#SVGID_11_"  style="overflow:visible;"/>
	</clipPath>
</g>
</svg>
